/* XPM */
static char *result[] = {
/* columns rows colors chars-per-pixel */
"32 32 7 1 ",
"  c #10141F",
". c #241527",
"X c #341C27",
"o c #4D2B32",
"O c #7A4841",
"+ c #AD7757",
"@ c None",
/* pixels */
"@@@@@@@@@@@@@@@@@@@@@@@@@@@@@@@@",
"@@@@@@@@@@@@@@@@@@@@@@@@@@@@@@@@",
"@@@@@@@@@@@@@@@@@@@@@@@@@@@@@@@@",
"@@@@@@@@@@@@@@@@@@@@@@@@@@@@@@@@",
"@@@@@@@@@@@@@@@@@@@@@@@@@@@@@@@@",
"@@@@@@@@@@@@@@@@@@@@@@@@@@@@@@@@",
"@@@@@@@@@@@@@@@@@@@@@@@@@@@@@@@@",
"@@@@@@@@@@@@@@@@@@@@@@@@@@@@@@@@",
"@@@@@@@@@@@@@OOOOo@@@@@@@@@@@@@@",
"@@@@@@@@@@@@oOOOOOoo@@@@@@@@@@@@",
"@@@@@@@@@@ooOOOOOOO+o@@@@@@@@@@@",
"@@@@@@@@oOOOO++++++++++@@@@@@@@@",
"@@@@@@oOOO+++++++++++++++OO@@@@@",
"@@@@oOOOOO+++++++++++++++++O@@@@",
"@@OOOOOO+++++++++++++++++++++O@@",
"OOOOOO++++++++++++++++++++++++oo",
"XOOoXOOO+++++++++++++++++++++XXo",
"XXXXOOOO++++++++++++++++++++ooXX",
"@.ooXOOOOOOO++++++++++++++XXXXXX",
".OoooXXOOO+OOOOO++++++++oo..XXX.",
".OoooooooooOO++O++++++oo.XXXXXX.",
"OooooooooXXoOOO++++++o..XXXXXX.X",
"ooXoooooooXoXoo+++oooX.XXXXXXX.X",
"XXXooooooX.OooXooXXX XXXXXXXX.XX",
"XXX.ooooo..OoooXXX  XXXXXXX XX..",
"@@XX.......ooooooX.XXXXX  ....@@",
"@@@@XX.oo..OooooXX.XXXX  ...@@@@",
"@@@@@@Xooo.oooooXXXXX  ...@@@@@@",
"@@@@@@@@XXXoooooX.XXX.XX@@@@@@@@",
"@@@@@@@@@@XXoooX .....X@@@@@@@@@",
"@@@@@@@@@@@@ooXX ...@@@@@@@@@@@@",
"@@@@@@@@@@@@@@XX.X@@@@@@@@@@@@@@"
};
